<svg width="87" height="87" viewBox="0 0 87 87" fill="none" xmlns="http://www.w3.org/2000/svg">
<g clip-path="url(#clip0_198_47)">
<path d="M47.85 45.8927L51.64 59.8127L55.4299 45.8927C56.3815 42.3964 56.86 40.6455 57.7952 39.2046C58.6203 37.9392 59.6999 36.8595 60.9653 36.0345C62.3953 35.0992 64.1462 34.6262 67.6534 33.6692L81.5734 29.8792L67.6534 26.0893C64.1571 25.1377 62.4117 24.6592 60.9653 23.724C59.6999 22.8989 58.6203 21.8193 57.7952 20.5539C56.86 19.1239 56.3869 17.373 55.4299 13.8658L51.64 -0.0541992L47.85 13.8658C46.8985 17.3621 46.42 19.113 45.4847 20.5539C44.6597 21.8193 43.58 22.8989 42.3147 23.724C40.8846 24.6592 39.1337 25.1323 35.6265 26.0893L21.7065 29.8792L35.6265 33.6692C39.1228 34.6207 40.8737 35.0992 42.3147 36.0345C43.58 36.8595 44.6597 37.9392 45.4847 39.2046C46.42 40.6346 46.893 42.3855 47.85 45.8927ZM14.5725 74.4939C15.4915 75.8207 16.008 77.4411 17.052 80.6927L19.0204 86.7827L20.9888 80.6927C22.0273 77.4574 22.5493 75.837 23.4683 74.4939C24.2785 73.3194 25.317 72.3189 26.5187 71.5414C27.8727 70.6659 29.5093 70.1983 32.7718 69.2685L38.0517 67.7623L32.7718 66.2561C29.5039 65.3209 27.8672 64.8532 26.5187 63.9832C25.3178 63.209 24.2813 62.2057 23.4683 61.0307C22.5493 59.7039 22.0328 58.0835 20.9888 54.8319L19.0204 48.7419L17.052 54.8319C16.0135 58.0672 15.4915 59.6876 14.5725 61.0307C13.7623 62.2052 12.7238 63.2057 11.5221 63.9832C10.1682 64.8587 8.53147 65.3263 5.26897 66.2561L-0.0108414 67.7623L5.26897 69.2685C8.53691 70.2037 10.1736 70.6714 11.5221 71.5414C12.723 72.3156 13.7596 73.3189 14.5725 74.4939Z" fill="#AFE8F9"/>
</g>
<defs>
<clipPath id="clip0_198_47">
<rect width="87" height="87" fill="white"/>
</clipPath>
</defs>
</svg>
