<svg width="107" height="107" viewBox="0 0 107 107" fill="none" xmlns="http://www.w3.org/2000/svg">
<g opacity="0.8">
<path d="M98.4609 80.9731L84.5885 15.0176C84.3639 13.9393 83.9284 12.916 83.3071 12.0066C82.6858 11.0971 81.8909 10.3194 80.968 9.71816C80.0452 9.11691 79.0126 8.70396 77.9296 8.50304C76.8467 8.30213 75.7347 8.31721 74.6576 8.54742L55.0925 12.7522C53.2937 13.1422 51.676 14.1202 50.4948 15.5317C49.7372 14.357 48.6971 13.391 47.4696 12.7221C46.2422 12.0533 44.8666 11.7029 43.4688 11.7031H23.4063C21.1892 11.7031 19.063 12.5838 17.4953 14.1515C15.9276 15.7192 15.0469 17.8454 15.0469 20.0625V86.9375C15.0469 89.1545 15.9276 91.2808 17.4953 92.8484C19.063 94.4161 21.1892 95.2968 23.4063 95.2968H43.4688C45.6858 95.2968 47.812 94.4161 49.3797 92.8484C50.9474 91.2808 51.8281 89.1545 51.8281 86.9375V37.7216L62.5365 88.6386C62.9268 90.5164 63.951 92.203 65.4372 93.4153C66.9235 94.6276 68.7814 95.2919 70.6994 95.2968C71.2937 95.2962 71.8863 95.2332 72.4674 95.1088L92.0325 90.904C94.1971 90.4308 96.087 89.1218 97.291 87.2618C98.495 85.4018 98.9155 83.1416 98.4609 80.9731ZM61.9388 37.0529L78.2396 33.5503L79.297 38.5659L62.9963 42.0685L61.9388 37.0529ZM65.0568 51.8908L81.3576 48.3882L85.1862 66.6033L68.8854 70.1059L65.0568 51.8908ZM75.1132 18.7082L76.1706 23.7239L59.8699 27.2264L58.8124 22.2108L75.1132 18.7082ZM25.0781 36.7812H41.7969V70.2187H25.0781V36.7812ZM41.7969 21.7343V26.75H25.0781V21.7343H41.7969ZM25.0781 85.2656V80.25H41.7969V85.2656H25.0781ZM72.0118 84.9479L70.9544 79.9323L87.2552 76.4297L88.3126 81.4454L72.0118 84.9479Z" fill="#AFE8F9"/>
</g>
</svg>
