<svg preserveAspectRatio="none" width="100%" height="100%" overflow="visible" style="display: block;" viewBox="0 0 181 188" fill="none" xmlns="http://www.w3.org/2000/svg">
<g id="lineicons:gears-3" opacity="0.25">
<path id="Vector" d="M31.9826 40.5854C33.6843 41.554 35.6099 42.0604 37.568 42.0542C39.5261 42.048 41.4485 41.5294 43.1441 40.5501C44.8397 39.5708 46.2495 38.1647 47.2333 36.4717C48.2171 34.7787 48.7408 32.8577 48.7522 30.8997H60.0322C60.0428 32.8588 60.5663 34.7811 61.5505 36.4751C62.5348 38.1691 63.9454 39.5759 65.6421 40.5555C67.3389 41.535 69.2625 42.0532 71.2217 42.0585C73.1809 42.0637 75.1073 41.5559 76.8093 40.5854L82.4493 50.3464C85.5851 48.5942 89.3376 47.4362 93.1578 46.7518C92.9271 46.075 92.6263 45.4133 92.2554 44.7666L86.5477 34.8928C85.0717 32.3306 82.6428 30.4556 79.7903 29.6766C76.9378 28.8977 73.8931 29.2778 71.3197 30.7342C71.2939 27.7769 70.0999 24.9497 67.9982 22.8691C65.8964 20.7884 63.0573 19.6231 60.0998 19.6272H48.6995C42.5331 19.6272 37.5323 24.5904 37.4797 30.7418C34.9056 29.283 31.859 28.9015 29.0047 29.6806C26.1504 30.4597 23.7201 32.3361 22.2442 34.9003L16.544 44.7666C13.4608 50.1058 15.2656 56.9189 20.5597 60.0397C18.0095 61.5396 16.1561 63.9872 15.4038 66.8485C14.6515 69.7098 15.0614 72.7526 16.544 75.3128L22.2442 85.1866C25.3274 90.5258 32.1254 92.3682 37.4797 89.3451C37.5248 93.9925 40.3974 97.9706 44.4582 99.6325C44.4357 95.3386 45.511 90.9845 47.8197 86.9989L48.331 86.1115C47.8561 84.4821 47.0182 82.9814 45.8802 81.7222C44.7422 80.463 43.3336 79.478 41.7604 78.8411C40.1871 78.2043 38.49 77.9322 36.7965 78.0453C35.1031 78.1583 33.4572 78.6536 31.9826 79.4939L26.3426 69.7254C33.7498 65.3939 33.7498 54.6854 26.3426 50.3539L31.9826 40.5854Z" fill="var(--fill-0, #3BCEF3)"/>
<path id="Vector_2" d="M54.3997 71.3197C57.3913 71.3197 60.2604 70.1313 62.3758 68.0158C64.4913 65.9004 65.6797 63.0313 65.6797 60.0397C65.6797 57.048 64.4913 54.1789 62.3758 52.0635C60.2604 49.9481 57.3913 48.7597 54.3997 48.7597C51.408 48.7597 48.5389 49.9481 46.4235 52.0635C44.3081 54.1789 43.1197 57.048 43.1197 60.0397C43.1197 63.0313 44.3081 65.9004 46.4235 68.0158C48.5389 70.1313 51.408 71.3197 54.3997 71.3197Z" fill="var(--fill-0, #3BCEF3)"/>
<path id="Vector_3" fill-rule="evenodd" clip-rule="evenodd" d="M87.5328 113.627C87.5328 107.514 89.9611 101.652 94.2836 97.3292C98.6061 93.0067 104.469 90.5784 110.582 90.5784C116.695 90.5784 122.557 93.0067 126.88 97.3292C131.202 101.652 133.63 107.514 133.63 113.627C133.63 119.74 131.202 125.603 126.88 129.925C122.557 134.248 116.695 136.676 110.582 136.676C104.469 136.676 98.6061 134.248 94.2836 129.925C89.9611 125.603 87.5328 119.74 87.5328 113.627ZM110.589 101.866C109.044 101.866 107.513 102.17 106.085 102.762C104.658 103.353 103.36 104.22 102.267 105.313C101.174 106.406 100.308 107.703 99.7162 109.131C99.1247 110.559 98.8203 112.089 98.8203 113.635C98.8203 115.18 99.1247 116.711 99.7162 118.138C100.308 119.566 101.174 120.864 102.267 121.957C103.36 123.049 104.658 123.916 106.085 124.508C107.513 125.099 109.044 125.404 110.589 125.404C113.71 125.404 116.704 124.164 118.911 121.957C121.118 119.749 122.358 116.756 122.358 113.635C122.358 110.513 121.118 107.52 118.911 105.313C116.704 103.106 113.71 101.866 110.589 101.866Z" fill="var(--fill-0, #3BCEF3)"/>
<path id="Vector_4" fill-rule="evenodd" clip-rule="evenodd" d="M57.5882 134.631C56.6818 133.063 56.0934 131.331 55.8565 129.536C55.6196 127.74 55.7389 125.916 56.2075 124.166C56.6761 122.417 57.4849 120.777 58.5876 119.34C59.6903 117.903 61.0653 116.698 62.6341 115.793C63.0134 115.573 63.3282 115.257 63.5471 114.877C63.766 114.497 63.8811 114.066 63.8811 113.627C63.8811 113.189 63.766 112.758 63.5471 112.378C63.3282 111.998 63.0134 111.682 62.6341 111.461C59.4691 109.632 57.1603 106.621 56.2154 103.09C55.2705 99.5585 55.767 95.7966 57.5957 92.6314L65.9128 78.223C67.7418 75.0601 70.7518 72.7527 74.2812 71.808C77.8107 70.8632 81.5708 71.3584 84.7354 73.1846C85.1154 73.4058 85.547 73.5227 85.9867 73.5235C86.4263 73.5243 86.8584 73.409 87.2392 73.1892C87.62 72.9694 87.936 72.653 88.1553 72.2719C88.3745 71.8908 88.4892 71.4585 88.4878 71.0189C88.4878 63.4086 94.6542 57.2347 102.264 57.2347H118.906C126.524 57.2347 132.69 63.4086 132.69 71.0189C132.69 72.944 134.773 74.1472 136.435 73.1846C138.002 72.2774 139.731 71.688 141.526 71.4502C143.32 71.2124 145.143 71.3309 146.892 71.7989C148.64 72.2669 150.279 73.0753 151.715 74.1776C153.15 75.28 154.354 76.6547 155.258 78.223L163.583 92.6464C164.489 94.2123 165.077 95.9414 165.314 97.7349C165.551 99.5284 165.433 101.351 164.965 103.099C164.497 104.846 163.689 106.484 162.587 107.919C161.485 109.354 160.112 110.558 158.544 111.461C158.163 111.68 157.846 111.995 157.626 112.376C157.406 112.756 157.29 113.188 157.29 113.627C157.29 114.067 157.406 114.498 157.626 114.879C157.846 115.259 158.163 115.574 158.544 115.793C161.707 117.622 164.014 120.632 164.959 124.161C165.904 127.691 165.409 131.451 163.583 134.616L155.273 149.024C154.368 150.592 153.163 151.966 151.727 153.068C150.291 154.17 148.652 154.978 146.903 155.447C145.154 155.915 143.331 156.035 141.536 155.799C139.741 155.562 138.011 154.975 136.443 154.07C136.062 153.849 135.63 153.733 135.19 153.732C134.751 153.731 134.318 153.847 133.937 154.066C133.556 154.286 133.239 154.602 133.019 154.983C132.799 155.364 132.683 155.796 132.683 156.236C132.683 163.853 126.516 170.02 118.906 170.02H102.272C98.6175 170.02 95.1126 168.568 92.5278 165.985C89.943 163.402 88.4898 159.898 88.4878 156.243C88.4877 155.803 88.3717 155.371 88.1515 154.99C87.9313 154.609 87.6147 154.293 87.2336 154.074C86.8524 153.854 86.4201 153.739 85.9802 153.74C85.5404 153.74 85.1084 153.857 84.7278 154.077C81.5624 155.903 77.8016 156.397 74.272 155.451C70.7425 154.505 67.7331 152.196 65.9053 149.031L57.5882 134.631ZM68.2741 125.561C67.9881 125.726 67.7374 125.945 67.5364 126.207C67.3354 126.468 67.1881 126.767 67.1028 127.085C67.0176 127.404 66.9961 127.736 67.0397 128.063C67.0832 128.39 67.1909 128.705 67.3566 128.991L75.6738 143.391C76.3656 144.595 77.8922 145.001 79.0954 144.309C88.2773 139.007 99.7678 145.632 99.7678 156.243C99.7678 157.619 100.888 158.74 102.272 158.74H118.906C119.57 158.74 120.207 158.476 120.677 158.006C121.147 157.537 121.41 156.9 121.41 156.236C121.41 145.632 132.893 139 142.083 144.301C143.286 144.993 144.813 144.58 145.504 143.384L153.822 128.976C154.151 128.401 154.24 127.719 154.068 127.079C153.896 126.439 153.478 125.893 152.904 125.561C143.722 120.26 143.715 107.002 152.904 101.693C153.189 101.53 153.438 101.313 153.638 101.053C153.838 100.793 153.985 100.496 154.069 100.179C154.154 99.8626 154.175 99.5323 154.131 99.2074C154.087 98.8824 153.98 98.5694 153.814 98.2864L145.489 83.8706C145.327 83.5844 145.11 83.3333 144.85 83.1319C144.59 82.9305 144.292 82.7828 143.974 82.6974C143.657 82.612 143.325 82.5907 142.999 82.6346C142.673 82.6785 142.359 82.7868 142.075 82.9531C132.893 88.2622 121.41 81.6221 121.41 71.0189C121.41 70.3547 121.147 69.7178 120.677 69.2482C120.207 68.7786 119.57 68.5147 118.906 68.5147H102.272C101.943 68.5127 101.617 68.5762 101.312 68.7014C101.008 68.8266 100.732 69.0111 100.499 69.2442C100.267 69.4772 100.083 69.7541 99.9592 70.0588C99.8348 70.3635 99.7724 70.6898 99.7754 71.0189C99.7754 81.6221 88.2923 88.2547 79.1029 82.9456C78.5282 82.6157 77.8462 82.527 77.2063 82.699C76.5664 82.871 76.0207 83.2895 75.6888 83.863L67.3717 98.2714C67.2072 98.5562 67.1004 98.8707 67.0574 99.1969C67.0145 99.5231 67.0363 99.8545 67.1215 100.172C67.2067 100.49 67.3536 100.788 67.554 101.049C67.7543 101.31 68.0041 101.529 68.2891 101.693C77.4786 106.995 77.4635 120.267 68.2891 125.561" fill="var(--fill-0, #3BCEF3)"/>
</g>
</svg>
