<svg width="25" height="25" viewBox="0 0 25 25" fill="none" xmlns="http://www.w3.org/2000/svg">
<path d="M19.55 5.41005C18.6331 4.48416 17.541 3.75002 16.3375 3.25042C15.134 2.75081 13.8431 2.49574 12.54 2.50005C7.07999 2.50005 2.62999 6.95005 2.62999 12.4101C2.62999 14.1601 3.08999 15.8601 3.94999 17.3601L2.54999 22.5001L7.79999 21.1201C9.24999 21.9101 10.88 22.3301 12.54 22.3301C18 22.3301 22.45 17.8801 22.45 12.4201C22.45 9.77005 21.42 7.28005 19.55 5.41005ZM12.54 20.6501C11.06 20.6501 9.60999 20.2501 8.33999 19.5001L8.03999 19.3201L4.91999 20.1401L5.74999 17.1001L5.54999 16.7901C4.72754 15.4771 4.29091 13.9593 4.28999 12.4101C4.28999 7.87005 7.98999 4.17005 12.53 4.17005C14.73 4.17005 16.8 5.03005 18.35 6.59005C19.1176 7.35392 19.7259 8.2626 20.1396 9.26338C20.5533 10.2642 20.7642 11.3371 20.76 12.4201C20.78 16.9601 17.08 20.6501 12.54 20.6501ZM17.06 14.4901C16.81 14.3701 15.59 13.7701 15.37 13.6801C15.14 13.6001 14.98 13.5601 14.81 13.8001C14.64 14.0501 14.17 14.6101 14.03 14.7701C13.89 14.9401 13.74 14.9601 13.49 14.8301C13.24 14.7101 12.44 14.4401 11.5 13.6001C10.76 12.9401 10.27 12.1301 10.12 11.8801C9.97999 11.6301 10.1 11.5001 10.23 11.3701C10.34 11.2601 10.48 11.0801 10.6 10.9401C10.72 10.8001 10.77 10.6901 10.85 10.5301C10.93 10.3601 10.89 10.2201 10.83 10.1001C10.77 9.98005 10.27 8.76005 10.07 8.26005C9.86999 7.78005 9.65999 7.84005 9.50999 7.83005H9.02999C8.85999 7.83005 8.59999 7.89005 8.36999 8.14005C8.14999 8.39005 7.50999 8.99005 7.50999 10.2101C7.50999 11.4301 8.39999 12.6101 8.51999 12.7701C8.63999 12.9401 10.27 15.4401 12.75 16.5101C13.34 16.7701 13.8 16.9201 14.16 17.0301C14.75 17.2201 15.29 17.1901 15.72 17.1301C16.2 17.0601 17.19 16.5301 17.39 15.9501C17.6 15.3701 17.6 14.8801 17.53 14.7701C17.46 14.6601 17.31 14.6101 17.06 14.4901Z" fill="white"/>
</svg>
