<svg preserveAspectRatio="none" width="100%" height="100%" overflow="visible" style="display: block;" viewBox="0 0 29 29" fill="none" xmlns="http://www.w3.org/2000/svg">
<g id="mdi:video">
<path id="Vector" d="M20.064 12.3924V8.26163C20.064 7.94861 19.9396 7.64841 19.7183 7.42708C19.4969 7.20574 19.1967 7.0814 18.8837 7.0814H4.72093C4.40791 7.0814 4.10772 7.20574 3.88638 7.42708C3.66504 7.64841 3.5407 7.94861 3.5407 8.26163V20.064C3.5407 20.377 3.66504 20.6772 3.88638 20.8985C4.10772 21.1198 4.40791 21.2442 4.72093 21.2442H18.8837C19.1967 21.2442 19.4969 21.1198 19.7183 20.8985C19.9396 20.6772 20.064 20.377 20.064 20.064V15.9331L24.7849 20.6541V7.67151L20.064 12.3924Z" fill="var(--fill-0, #01A8DC)"/>
</g>
</svg>
